/* XPM */
static char *_161eb8cefa74239fce8d1cc3632cffc7UmO0vP6j27SRSyp[] = {
/* columns rows colors chars-per-pixel */
"16 20 3 1 ",
"  c black",
". c #222034",
"X c white",
/* pixels */
".......    .....",
".......    .....",
".....  XX  .....",
".....  XX  .....",
"...  XXXX  .....",
"...  XXXX  .....",
"...    XX  .....",
"...    XX  .....",
".....  XX  .....",
".....  XX  .....",
".....  XX  .....",
".....  XX  .....",
".....  XX  .....",
".....  XX  .....",
".....  XX  .....",
".....  XX  .....",
"...  XXXXXX  ...",
"...  XXXXXX  ...",
"...          ...",
"...          ..."
};
