/* XPM */
static char *_1e3604f2a264c9782d1e3b542284af5dQj13lgdISjuZ0r5[] = {
/* columns rows colors chars-per-pixel */
"16 20 3 1 ",
"  c black",
". c #222034",
"X c white",
/* pixels */
"                ",
"                ",
"  XXXXXXXXXXXX  ",
"  XXXXXXXXXXXX  ",
"  XX          ..",
"  XX          ..",
"  XX        ....",
"  XX        ....",
"..  XXXXXXXX  ..",
"..  XXXXXXXX  ..",
"....        XX  ",
"....        XX  ",
"..........  XX  ",
"..........  XX  ",
"..          XX  ",
"..          XX  ",
"  XXXXXXXXXX  ..",
"  XXXXXXXXXX  ..",
"            ....",
"            ...."
};
