/* XPM */
static char *bfe708445ff64107ceb5a57ce943e57fWocg6PmJPLNwHHt9[] = {
/* columns rows colors chars-per-pixel */
"50 50 4 1 ",
"  c #595652",
". c #696A6A",
"X c #5B6EE1",
"o c #847E87",
/* pixels */
"oo  oooooooooooooooooooooooooooooooooooooooooo  oo",
"oo  oooooooooooooooooooooooooooooooooooooooooo  oo",
"  XX                                          XX  ",
"  XX                                          XX  ",
"oo  oooooooooooooooooooooooooooooooooooooooooo  oo",
"oo  oooooooooooooooooooooooooooooooooooooooooo  oo",
"oo  ooXXoo..............................ooXXoo  oo",
"oo  ooXXoo..............................ooXXoo  oo",
"oo  oooooooooooooooooooooooooooooooooooooooooo  oo",
"oo  oooooooooooooooooooooooooooooooooooooooooo  oo",
"oo  oo..oooooooooooooooooooooooooooooooooo..oo  oo",
"oo  oo..oooooooooooooooooooooooooooooooooo..oo  oo",
"oo  oo..oooooooooooooooooooooooooooooooooo..oo  oo",
"oo  oo..oooooooooooooooooooooooooooooooooo..oo  oo",
"oo  oo..oooooooooooooooooooooooooooooooooo..oo  oo",
"oo  oo..oooooooooooooooooooooooooooooooooo..oo  oo",
"oo  oo..oooooooooooooooooooooooooooooooooo..oo  oo",
"oo  oo..oooooooooooooooooooooooooooooooooo..oo  oo",
"oo  oo..oooooooooooooooooooooooooooooooooo..oo  oo",
"oo  oo..oooooooooooooooooooooooooooooooooo..oo  oo",
"oo  oo..oooooooooooooooooooooooooooooooooo..oo  oo",
"oo  oo..oooooooooooooooooooooooooooooooooo..oo  oo",
"oo  oo..oooooooooooooooooooooooooooooooooo..oo  oo",
"oo  oo..oooooooooooooooooooooooooooooooooo..oo  oo",
"oo  oo..oooooooooooooooooooooooooooooooooo..oo  oo",
"oo  oo..oooooooooooooooooooooooooooooooooo..oo  oo",
"oo  oo..oooooooooooooooooooooooooooooooooo..oo  oo",
"oo  oo..oooooooooooooooooooooooooooooooooo..oo  oo",
"oo  oo..oooooooooooooooooooooooooooooooooo..oo  oo",
"oo  oo..oooooooooooooooooooooooooooooooooo..oo  oo",
"oo  oo..oooooooooooooooooooooooooooooooooo..oo  oo",
"oo  oo..oooooooooooooooooooooooooooooooooo..oo  oo",
"oo  oo..oooooooooooooooooooooooooooooooooo..oo  oo",
"oo  oo..oooooooooooooooooooooooooooooooooo..oo  oo",
"oo  oo..oooooooooooooooooooooooooooooooooo..oo  oo",
"oo  oo..oooooooooooooooooooooooooooooooooo..oo  oo",
"oo  oo..oooooooooooooooooooooooooooooooooo..oo  oo",
"oo  oo..oooooooooooooooooooooooooooooooooo..oo  oo",
"oo  oo..oooooooooooooooooooooooooooooooooo..oo  oo",
"oo  oo..oooooooooooooooooooooooooooooooooo..oo  oo",
"oo  oooooooooooooooooooooooooooooooooooooooooo  oo",
"oo  oooooooooooooooooooooooooooooooooooooooooo  oo",
"oo  ooXXoo..............................ooXXoo  oo",
"oo  ooXXoo..............................ooXXoo  oo",
"oo  oooooooooooooooooooooooooooooooooooooooooo  oo",
"oo  oooooooooooooooooooooooooooooooooooooooooo  oo",
"  XX                                          XX  ",
"  XX                                          XX  ",
"oo  oooooooooooooooooooooooooooooooooooooooooo  oo",
"oo  oooooooooooooooooooooooooooooooooooooooooo  oo"
};
