/* XPM */
static char *_51fd340740b4b62b712db5d8dc0509bQzFxEuz1St9FoaTV[] = {
/* columns rows colors chars-per-pixel */
"50 50 3 1 ",
"  c #595652",
". c #847E87",
"X c #928D95",
/* pixels */
"XXXXX    XXXXXXX  XXXX     XXX   XXXXXXX     XXXXX",
".....X  ....X...XX....X   ....XXX...X...X   ....X.",
".....X  ...............X  ..............X  .......",
".....X  ...............X  ..............X  .......",
".....X  ........X......X  ...X..........X  ...X...",
".X...X  ........ ......X  ......... ....X  ... ...",
".. ..X  ...............X  ..............X  .......",
".....X   ..............X   .............    ......",
".....     .............     ....  .....      .....",
"                                                  ",
"                                                  ",
"XXXXXXXXX      XXX  XXXXXXXX     XXX  XXXXXX     X",
"...X.....X   XX...XX....X...X   X...XX...X..X   X.",
".........X   ...............X  ..............X  ..",
".........X  ................X  ..............X  ..",
".....X...X  ................X  ..............X  ..",
".. ......X  ................X  ..............X  ..",
".........X  ...X.... X......X  ...X..... X...X  ..",
".........X  ................X  ..............X  ..",
"..X......X  ................X  ..............X  ..",
".........    ...............X  ..............X  ..",
"........       ....  .......    ......  .....    .",
"                                                  ",
"                                                  ",
"    XXXXXXX  XXXXXX     XXXXXXX  XXXX       XXXXXX",
"X  ....X...XX......X   ........XX....XX    X....X.",
"X  .................X  ................X  ........",
"X  .................X  ................X  ........",
"X  .................X  ................X  ........",
"X  .................X  ..........X.....X  ...X....",
"X  .................X  ......... ......X  ........",
"X  .....X...........X  ................X  ........",
"X  .... ............X  ....X...........X  ........",
"X  .................X  ................X  ......X.",
"X   ................X   ...............    .......",
"     ......  .......     .....  .....       ......",
"                                                  ",
"                                                  ",
"XX  XXXXX     XXXXX  XXXXXXXXX    XXX  XXXXXX     ",
"..XX.....X   ......XX....X....X  ....XX...X..X   .",
"..........X  .................X  .............X  .",
"..........X  .................X  .............X  .",
"..........X  ...X.............X  ....... X....X  .",
".....X....X  .................X  .............X  .",
"..... ....X  .................X  ..X..........X  .",
"..X.......X  ....... X........X  .............X  .",
"..........X   ................X  .............X  .",
"..........      .........  ...    ............    ",
"                                                  ",
"                                                  "
};
