/* XPM */
static char *_cadf1dfa3e441c4fb587dcdb1436a2bBf3R2praoNoYREec[] = {
/* columns rows colors chars-per-pixel */
"50 50 8 1 ",
"  c #222034",
". c #551818",
"X c #595652",
"o c #696A6A",
"O c #3A3A80",
"+ c #5B6EE1",
"@ c #847E87",
"# c #CD8D8D",
/* pixels */
"@@XX@@@@@@@@@@@@@@@@@@@@@@@@@@@@@@@@@@@@@@@@@@XX@@",
"@@XX@@@@@@@@@@@@@@@@@@@@@@@@@@@@@@@@@@@@@@@@@@XX@@",
"XX++XXXXOOOOOOOOOOOOOOOOOOOOOOOOOOOOOOOOOOOOXX++XX",
"XX++XXXXOOOOOOOOOOOOOOOOOOOOOOOOOOOOOOOOOOOOXX++XX",
"@@XX@@OOOOOOOOOOOOOOOOOOOOOOOOOOOOOOOOOOOOOO@@XX@@",
"@@XX@@OOOOOOOOOOOOOOOOOOOOOOOOOOOOOOOOOOOOOO@@XX@@",
"@@XX@@OOOOOOOOOOOOOOOOOOOOOOOOOOOOOOOOOOOOOO@@XX@@",
"@@XX@@OOOOOOOOOOOOOOOOOOOOOOOOOOOOOOOOOOOOOO@@XX@@",
"@@XX@@OOOOOOOOOOOOOOOOOOOOOOOOOOOOOOOOOOOOOO@@XX@@",
"@@XX@@OOOOOOOOOOOOOOOOOOOOOOOOOOOOOOOOOOOOOO@@XX@@",
"@@XX@@                          OOOOOOOOOOOO@@XX@@",
"@@XX@@                          OOOOOOOOOOOO@@XX@@",
"@@XX@@                            OOOOOO@@oo@@XX@@",
"@@XX@@                            OOOOOO@@oo@@XX@@",
"@@XX@@  ..####      ..####        OOOOOO@@oo@@XX@@",
"@@XX@@  ..####      ..####        OOOOOO@@oo@@XX@@",
"@@XX@@  ....##      ....##        OOOOOO@@oo@@XX@@",
"@@XX@@  ....##      ....##        OOOOOO@@oo@@XX@@",
"@@XX@@  ......      ......        OOOOOO@@oo@@XX@@",
"@@XX@@  ......      ......        OOOOOO@@oo@@XX@@",
"@@XX@@  ......      ......        OOOOOO@@oo@@XX@@",
"@@XX@@  ......      ......        OOOOOO@@oo@@XX@@",
"@@XX@@  ......      ......        OOOOOO@@oo@@XX@@",
"@@XX@@  ......      ......        OOOOOO@@oo@@XX@@",
"@@XX@@                          OOOOOOOO@@oo@@XX@@",
"@@XX@@                          OOOOOOOO@@oo@@XX@@",
"@@XX@@                        OOOOOOOOOO@@oo@@XX@@",
"@@XX@@                        OOOOOOOOOO@@oo@@XX@@",
"@@XX@@OOOOOOOOOOOOOOOOOOOOOOOOOOOOOOOOOO@@oo@@XX@@",
"@@XX@@OOOOOOOOOOOOOOOOOOOOOOOOOOOOOOOOOO@@oo@@XX@@",
"@@XX@@OOOOOOOOOOOOOOOOOOOOOOOOOOOOOOOOOO@@oo@@XX@@",
"@@XX@@OOOOOOOOOOOOOOOOOOOOOOOOOOOOOOOOOO@@oo@@XX@@",
"@@XX@@OOOOOOOOOOOOOOOOOOOOOOOOOOOOOOOOOO@@oo@@XX@@",
"@@XX@@OOOOOOOOOOOOOOOOOOOOOOOOOOOOOOOOOO@@oo@@XX@@",
"@@XXOO    OOOOOOOOOOOOOOOO    OOOOOOOOOO@@oo@@XX@@",
"@@XXOO    OOOOOOOOOOOOOOOO    OOOOOOOOOO@@oo@@XX@@",
"@@XX        OOOOOOOOOOOO        OOOOOOOO@@oo@@XX@@",
"@@XX        OOOOOOOOOOOO        OOOOOOOO@@oo@@XX@@",
"@@XX        OOOOOOOOOOOO        OOOOOOOO@@oo@@XX@@",
"@@XX        OOOOOOOOOOOO        OOOOOOOO@@oo@@XX@@",
"@@XXOO    OOOOOOOOOOOOOOOO    OOOOOOOOOOOO@@@@XX@@",
"@@XXOO    OOOOOOOOOOOOOOOO    OOOOOOOOOOOO@@@@XX@@",
"@@XXOOOOOOOOOOOOOOOOOOOOOOOOOOOOOOOOOOOOOOOO@@XX@@",
"@@XXOOOOOOOOOOOOOOOOOOOOOOOOOOOOOOOOOOOOOOOO@@XX@@",
"@@XXOOOOOOOOOOOOOOOOOOOOOOOOOOOOOOOOOOOOOOOO@@XX@@",
"@@XXOOOOOOOOOOOOOOOOOOOOOOOOOOOOOOOOOOOOOOOO@@XX@@",
"XX++XXOOOOOOOOOOOOOOOOOOOOOOOOOOOOOOOOOOOOOOOO++XX",
"XX++XXOOOOOOOOOOOOOOOOOOOOOOOOOOOOOOOOOOOOOOOO++XX",
"@@XX@@OO        OOOOOO          OOOOOOOOOOOOOOXX@@",
"@@XX@@OO        OOOOOO          OOOOOOOOOOOOOOXX@@"
};
