/* XPM */
static char *d49dbcb3bd444beaaad45de88742a365QtroJif4IwBXcQos[] = {
/* columns rows colors chars-per-pixel */
"50 50 6 1 ",
"  c #222034",
". c #595652",
"X c #696A6A",
"o c #3A3A80",
"O c #5B6EE1",
"+ c #847E87",
/* pixels */
"++..++++++++++++++++++++++++++++++++++++++++++..++",
"++..++++++++++++++++++++++++++++++++++++++++++..++",
"..OO....oooooooooooooooooooooooooooooooooooo..OO..",
"..OO....oooooooooooooooooooooooooooooooooooo..OO..",
"++..++oooooooooooooooooooooooooooooooooooooo++..++",
"++..++oooooooooooooooooooooooooooooooooooooo++..++",
"++..++oooooooooooooooooooooooooooooooooooooo++..++",
"++..++oooooooooooooooooooooooooooooooooooooo++..++",
"++..++oooooooooooooooooooooooooooooooooooooo++..++",
"++..++oooooooooooooooooooooooooooooooooooooo++..++",
"++..++oooooooooooooooooooooooooooooooooooooo++..++",
"++..++oooooooooooooooooooooooooooooooooooooo++..++",
"++..++oooooooooooooooooooooooooooooooooo++XX++..++",
"++..++oooooooooooooooooooooooooooooooooo++XX++..++",
"++..++oooooooooooooooooooooooooooooooooo++XX++..++",
"++..++oooooooooooooooooooooooooooooooooo++XX++..++",
"++..++oooooooooooooooooooooooooooooooooo++XX++..++",
"++..++oooooooooooooooooooooooooooooooooo++XX++..++",
"++..++oooooooooooooooooooooooooooooooooo++XX++..++",
"++..++oooooooooooooooooooooooooooooooooo++XX++..++",
"++..++oooooooooooooooooooooooooooooooooo++XX++..++",
"++..++oooooooooooooooooooooooooooooooooo++XX++..++",
"++..++oooooooooooooooooooooooooooooooooo++XX++..++",
"++..++oooooooooooooooooooooooooooooooooo++XX++..++",
"++..++oooooooooooooooooooooooooooooooooo++XX++..++",
"++..++oooooooooooooooooooooooooooooooooo++XX++..++",
"++..++oooooooooooooooooooooooooooooooooo++XX++..++",
"++..++oooooooooooooooooooooooooooooooooo++XX++..++",
"++..++oooooooooooooooooooooooooooooooooo++XX++..++",
"++..++oooooooooooooooooooooooooooooooooo++XX++..++",
"++..  oooooooooooooooooooooooooooooooooo++XX++..++",
"++..  oooooooooooooooooooooooooooooooooo++XX++..++",
"++..  oooooooooooooooooooooooooooooooooo++XX++..++",
"++..  oooooooooooooooooooooooooooooooooo++XX++..++",
"++..oooooooooooooooooooooooooooooooooooo++XX++..++",
"++..oooooooooooooooooooooooooooooooooooo++XX++..++",
"++..oooooooooooooooooooooooooooooooooooo++XX++..++",
"++..oooooooooooooooooooooooooooooooooooo++XX++..++",
"++..oooooooooooooooooooooooooooooooooooo++XX++..++",
"++..oooooooooooooooooooooooooooooooooooo++XX++..++",
"++..oooooooooooooooooooooooooooooooooooooo++++..++",
"++..oooooooooooooooooooooooooooooooooooooo++++..++",
"++..oooooooooooooooooooooooooooooooooooooooo++..++",
"++..oooooooooooooooooooooooooooooooooooooooo++..++",
"++..oooooooooooooooooooooooooooooooooooooooo++..++",
"++..oooooooooooooooooooooooooooooooooooooooo++..++",
"..OO..ooooooooooooooooooooooooooooooooooooooooOO..",
"..OO..ooooooooooooooooooooooooooooooooooooooooOO..",
"++..++oooooooo          oo          oooooooooo..++",
"++..++oooooooo          oo          oooooooooo..++"
};
