/* XPM */
static char *_d1e0423e8224b46f93d0c29c24530e90okcDAUtuCMNYHcW[] = {
/* columns rows colors chars-per-pixel */
"50 50 8 1 ",
"  c #222034",
". c #551818",
"X c #595652",
"o c #696A6A",
"O c #3A3A80",
"+ c #5B6EE1",
"@ c #847E87",
"# c #CD8D8D",
/* pixels */
"@@XX@@@@@@@@@@@@@@@@@@@@@@@@@@@@@@@@@@@@@@@@@@XX@@",
"@@XX@@@@@@@@@@@@@@@@@@@@@@@@@@@@@@@@@@@@@@@@@@XX@@",
"XX++XXOOOOOOOOOOOOOOOOOOOOOOOOOOOOOOOOOOOOXXXX++XX",
"XX++XXOOOOOOOOOOOOOOOOOOOOOOOOOOOOOOOOOOOOXXXX++XX",
"@@XX@@OOOOOOOOOOOOOOOOOOOOOOOOOOOOOOOOOOOOOO@@XX@@",
"@@XX@@OOOOOOOOOOOOOOOOOOOOOOOOOOOOOOOOOOOOOO@@XX@@",
"@@XX@@OOOOOOOOOOOOOOOOOOOOOOOOOOOOOOOOOOOOOO@@XX@@",
"@@XX@@OOOOOOOOOOOOOOOOOOOOOOOOOOOOOOOOOOOOOO@@XX@@",
"@@XX@@OOOOOOOOOOOOOOOOOOOOOOOOOOOOOOOOOOOOOO@@XX@@",
"@@XX@@OOOOOOOOOOOOOOOOOOOOOOOOOOOOOOOOOOOOOO@@XX@@",
"@@XX@@OOOOOOOOOO                        OOOO@@XX@@",
"@@XX@@OOOOOOOOOO                        OOOO@@XX@@",
"@@XX@@oo@@OOOO                            OO@@XX@@",
"@@XX@@oo@@OOOO                            OO@@XX@@",
"@@XX@@oo@@OOOO      ####..    ####..      OO@@XX@@",
"@@XX@@oo@@OOOO      ####..    ####..      OO@@XX@@",
"@@XX@@oo@@OOOO      ##....    ##....      OO@@XX@@",
"@@XX@@oo@@OOOO      ##....    ##....      OO@@XX@@",
"@@XX@@oo@@OOOO      ......    ......      OO@@XX@@",
"@@XX@@oo@@OOOO      ......    ......      OO@@XX@@",
"@@XX@@oo@@OOOO      ......    ......      OO@@XX@@",
"@@XX@@oo@@OOOO      ......    ......      OO@@XX@@",
"@@XX@@oo@@OOOO      ......    ......      OO@@XX@@",
"@@XX@@oo@@OOOO      ......    ......      OO@@XX@@",
"@@XX@@oo@@OOOOOO                        OOOO@@XX@@",
"@@XX@@oo@@OOOOOO                        OOOO@@XX@@",
"@@XX@@oo@@OOOOOOOO                    OOOOOO@@XX@@",
"@@XX@@oo@@OOOOOOOO                    OOOOOO@@XX@@",
"@@XX@@oo@@OOOOOOOOOOOOOOOOOOOOOOOOOOOOOOOOOO@@XX@@",
"@@XX@@oo@@OOOOOOOOOOOOOOOOOOOOOOOOOOOOOOOOOO@@XX@@",
"@@XX@@oo@@OOOOOOOOOOOOOOOOOOOOOOOOOOOOOOOOOO@@XX@@",
"@@XX@@oo@@OOOOOOOOOOOOOOOOOOOOOOOOOOOOOOOOOO@@XX@@",
"@@XX@@oo@@OOOOOOOOOOOOOOOOOOOOOOOOOOOOOOOOOO@@XX@@",
"@@XX@@oo@@OOOOOOOOOOOOOOOOOOOOOOOOOOOOOOOOOO@@XX@@",
"@@XX@@oo@@OOOOOO    OOOOOOOOOOOOOOOO    OOOO@@XX@@",
"@@XX@@oo@@OOOOOO    OOOOOOOOOOOOOOOO    OOOO@@XX@@",
"@@XX@@oo@@OOOO        OOOOOOOOOOOO        OO@@XX@@",
"@@XX@@oo@@OOOO        OOOOOOOOOOOO        OO@@XX@@",
"@@XX@@oo@@OOOO        OOOOOOOOOOOO        OO@@XX@@",
"@@XX@@oo@@OOOO        OOOOOOOOOOOO        OO@@XX@@",
"@@XX@@@@@@OOOOOO    OOOOOOOOOOOOOOOO    OOOO@@XX@@",
"@@XX@@@@@@OOOOOO    OOOOOOOOOOOOOOOO    OOOO@@XX@@",
"@@XX@@++@@OOOOOOOOOOOOOOOOOOOOOOOOOOOOOOOOOOOOXX@@",
"@@XX@@++@@OOOOOOOOOOOOOOOOOOOOOOOOOOOOOOOOOOOOXX@@",
"@@XX@@@@@@OOOOOOOOOOOOOOOOOOOOOOOOOOOOOOOOOOOOXX@@",
"@@XX@@@@@@OOOOOOOOOOOOOOOOOOOOOOOOOOOOOOOOOOOOXX@@",
"XX++XXXXXXOOOOOOOOOOOOOOOOOOOOOOOOOOOOOOOOOOOOOOXX",
"XX++XXXXXXOOOOOOOOOOOOOOOOOOOOOOOOOOOOOOOOOOOOOOXX",
"@@XX@@@@@@OOOOOO        OOOOOOOO        OOOOOOOO@@",
"@@XX@@@@@@OOOOOO        OOOOOOOO        OOOOOOOO@@"
};
