/* XPM */
static char *_dfb6534b6bc46b088dfefe351709af3f8vZbmegZUk3fNRo[] = {
/* columns rows colors chars-per-pixel */
"50 50 8 1 ",
"  c #222034",
". c #551818",
"X c #595652",
"o c #696A6A",
"O c #3A3A80",
"+ c #5B6EE1",
"@ c #847E87",
"# c #CD8D8D",
/* pixels */
"@@XX@@@@@@@@@@@@@@@@@@@@@@@@@@@@@@@@@@@@@@@@@@XX@@",
"@@XX@@@@@@@@@@@@@@@@@@@@@@@@@@@@@@@@@@@@@@@@@@XX@@",
"XX++XXOOOOOOOOOOOOOOOOOOOOOOOOOOOOOOOOOOOOXXXX++XX",
"XX++XXOOOOOOOOOOOOOOOOOOOOOOOOOOOOOOOOOOOOXXXX++XX",
"@@XX@@OOOOOOOOOOOOOOOOOOOOOOOOOOOOOOOOOOOOOO@@XX@@",
"@@XX@@OOOOOOOOOOOOOOOOOOOOOOOOOOOOOOOOOOOOOO@@XX@@",
"@@XX@@OOOOOOOOOOOOOOOOOOOOOOOOOOOOOOOOOOOOOO@@XX@@",
"@@XX@@OOOOOOOOOOOOOOOOOOOOOOOOOOOOOOOOOOOOOO@@XX@@",
"@@XX@@OOOOOOOOOOOOOOOOOOOOOOOOOOOOOOOOOOOOOO@@XX@@",
"@@XX@@OOOOOOOOOOOOOOOOOOOOOOOOOOOOOOOOOOOOOO@@XX@@",
"@@XX@@OOOOOOOOOOOO                          @@XX@@",
"@@XX@@OOOOOOOOOOOO                          @@XX@@",
"@@XX@@oo@@OOOOOO                            @@XX@@",
"@@XX@@oo@@OOOOOO                            @@XX@@",
"@@XX@@oo@@OOOOOO        ####..      ####..  @@XX@@",
"@@XX@@oo@@OOOOOO        ####..      ####..  @@XX@@",
"@@XX@@oo@@OOOOOO        ##....      ##....  @@XX@@",
"@@XX@@oo@@OOOOOO        ##....      ##....  @@XX@@",
"@@XX@@oo@@OOOOOO        ......      ......  @@XX@@",
"@@XX@@oo@@OOOOOO        ......      ......  @@XX@@",
"@@XX@@oo@@OOOOOO        ......      ......  @@XX@@",
"@@XX@@oo@@OOOOOO        ......      ......  @@XX@@",
"@@XX@@oo@@OOOOOO        ......      ......  @@XX@@",
"@@XX@@oo@@OOOOOO        ......      ......  @@XX@@",
"@@XX@@oo@@OOOOOOOO                          @@XX@@",
"@@XX@@oo@@OOOOOOOO                          @@XX@@",
"@@XX@@oo@@OOOOOOOOOO                        @@XX@@",
"@@XX@@oo@@OOOOOOOOOO                        @@XX@@",
"@@XX@@oo@@OOOOOOOOOOOOOOOOOOOOOOOOOOOOOOOOOO@@XX@@",
"@@XX@@oo@@OOOOOOOOOOOOOOOOOOOOOOOOOOOOOOOOOO@@XX@@",
"@@XX@@oo@@OOOOOOOOOOOOOOOOOOOOOOOOOOOOOOOOOO@@XX@@",
"@@XX@@oo@@OOOOOOOOOOOOOOOOOOOOOOOOOOOOOOOOOO@@XX@@",
"@@XX@@oo@@OOOOOOOOOOOOOOOOOOOOOOOOOOOOOOOOOO@@XX@@",
"@@XX@@oo@@OOOOOOOOOOOOOOOOOOOOOOOOOOOOOOOOOO@@XX@@",
"@@XX@@oo@@OOOOOOOOOO    OOOOOOOOOOOOOOOO    OOXX@@",
"@@XX@@oo@@OOOOOOOOOO    OOOOOOOOOOOOOOOO    OOXX@@",
"@@XX@@oo@@OOOOOOOO        OOOOOOOOOOOO        XX@@",
"@@XX@@oo@@OOOOOOOO        OOOOOOOOOOOO        XX@@",
"@@XX@@oo@@OOOOOOOO        OOOOOOOOOOOO        XX@@",
"@@XX@@oo@@OOOOOOOO        OOOOOOOOOOOO        XX@@",
"@@XX@@@@OOOOOOOOOOOO    OOOOOOOOOOOOOOOO    OOXX@@",
"@@XX@@@@OOOOOOOOOOOO    OOOOOOOOOOOOOOOO    OOXX@@",
"@@XX@@OOOOOOOOOOOOOOOOOOOOOOOOOOOOOOOOOOOOOOOOXX@@",
"@@XX@@OOOOOOOOOOOOOOOOOOOOOOOOOOOOOOOOOOOOOOOOXX@@",
"@@XX@@OOOOOOOOOOOOOOOOOOOOOOOOOOOOOOOOOOOOOOOOXX@@",
"@@XX@@OOOOOOOOOOOOOOOOOOOOOOOOOOOOOOOOOOOOOOOOXX@@",
"XX++OOOOOOOOOOOOOOOOOOOOOOOOOOOOOOOOOOOOOOOOXX++XX",
"XX++OOOOOOOOOOOOOOOOOOOOOOOOOOOOOOOOOOOOOOOOXX++XX",
"@@XXOOOOOOOOOOOOOO          OOOOOO        OO@@XX@@",
"@@XXOOOOOOOOOOOOOO          OOOOOO        OO@@XX@@"
};
