/* XPM */
static char *e7f21fa3676e4c8da67ba6b19b2dfe8dSjxRhurJoMBaUayr[] = {
/* columns rows colors chars-per-pixel */
"50 50 5 1 ",
"  c black",
". c #595652",
"X c #5B6EE1",
"o c #847E87",
"O c #9B999C",
/* pixels */
"..................................................",
"..................................................",
"....OOOO....OOOOOOO...OOOOOOOOOOOO...OOOOOOOOO....",
"....ooooO..oooooooO..oooooooooooooO..ooooooooO....",
"..OOXXooO..ooOooooO..oooooo.OoooooO..oooOoooXXOO..",
"..ooXXooO..o.ooooo...oooooooooooooO...o.ooooXXoO..",
"..ooooo....................................ooooO..",
"..oooo......................................oooO..",
"..oooo..oooooooooooooooooooooooooooooooooo..oooO..",
"..oooo..o                                o..oOoO..",
"..oooo..o                                o..o.oO..",
"...Ooo..o                                o..oooO..",
"..oooo..o                                o...ooO..",
"..oooo..o                                o........",
"...ooo..o                                o........",
"........o                                o...ooO..",
"........o                                o..oooO..",
"..ooO...o                                o..oooO..",
"..oooO..o                                o..oooO..",
"..oooO..o                                o...OoO..",
"..oooO..o                                o..oooO..",
"..oooO..o                                o........",
"..oooO..o                                o........",
"..oooO..o                                o..ooo...",
"...OoO..o                                o..oooO..",
"..oooO..o                                o..oooO..",
"..oooO..o                                o..oooO..",
"..oooO..o                                o..oooO..",
"..oooO..o                                o..oOoO..",
"..oooO..o                                o...ooO..",
"..ooo...o                                o..oooO..",
"........o                                o..oooO..",
"........o                                o..oooO..",
"...OOO..o                                o...ooO..",
"..oooO..o                                o........",
"..oooO..o                                o........",
"..oooO..o                                o...ooO..",
"..oooO..o                                o..oooO..",
"..oOoO..o                                o..oooO..",
"...ooO..o                                o..oooO..",
"..oooO..o                                o..oooO..",
"..oooO..oooooooooooooooooooooooooooooooooo..oOoO..",
"..oooO.......................................ooO..",
"..ooooO....................................OoooO..",
"..ooXXoOOOO...OOOOOOOOO...OOOOOOOOOO....OOOoXXoO..",
"..ooXXoooooO..oooooooooO..ooooooooooO..oooooXXoO..",
"....oooooooO..ooo.OooooO..ooooooooooO..ooooooo....",
"....ooo.OooO..oooooooooO...oo.OoooooO..ooooooo....",
"..................................................",
".................................................."
};
