/* XPM */
static char *_ca9c71e1df14befe8a547004b86794aFmm92Emrdg6vtyRr[] = {
/* columns rows colors chars-per-pixel */
"50 50 9 1 ",
"  c #222034",
". c #6A1C1C",
"X c #595652",
"o c #696A6A",
"O c #AA1818",
"+ c #D95763",
"@ c #5B6EE1",
"# c #847E87",
"$ c #EAB9BD",
/* pixels */
"##XX##########################################XX##",
"##XX##########################################XX##",
"XX@@XXXXXXXXXXXXXXXXXXXXXXXXXXXXXXXXXXXXXXXXXX@@XX",
"XX@@XXXXXXXXXXXXXXXXXXXXXXXXXXXXXXXXXXXXXXXXXX@@XX",
"##XX##########################################XX##",
"##XX##########################################XX##",
"##XX##@@##oooooooooooooooooooooooooooooo##@@##XX##",
"##XX##@@##oooooooooooooooooooooooooooooo##@@##XX##",
"##XX##########################################XX##",
"##XX##########################################XX##",
"##XX##oo##################################oo##XX##",
"##XX##oo#############        #############oo##XX##",
"##XX##oo#############        #############oo##XX##",
"##XX##oo###########  $$$$$$$$  ###########oo##XX##",
"##XX##oo###########  $$$$$$$$  ###########oo##XX##",
"##XX##oo#########  ++++$$$$++++  #########oo##XX##",
"##XX##oo#########  ++++$$$$++++  #########oo##XX##",
"##XX##oo#######  ++++++++++++++++  #######oo##XX##",
"##XX##oo#######  ++++++++++++++++  #######oo##XX##",
"##XX##oo#######  OO++++++++++++OO  #######oo##XX##",
"##XX##oo#######  OO++++++++++++OO  #######oo##XX##",
"##XX##oo#######  OO++++++++++++OO  #######oo##XX##",
"##XX##oo#######  OO++++++++++++OO  #######oo##XX##",
"##XX##oo#######  OO++++++++++++OO  #######oo##XX##",
"##XX##oo#######  OO++++++++++++OO  #######oo##XX##",
"##XX##oo#######  OO++++++++++++OO  #######oo##XX##",
"##XX##oo#######  OO++++++++++++OO  #######oo##XX##",
"##XX##oo#######  OO++++++++++++OO  #######oo##XX##",
"##XX##oo#######  OO++++++++++++OO  #######oo##XX##",
"##XX##oo#######  OO++++++++++++OO  #######oo##XX##",
"##XX##oo#######  OO++++++++++++OO  #######oo##XX##",
"##XX##oo#######  OO++++++++++++OO  #######oo##XX##",
"##XX##oo#######  OO++++++++++++OO  #######oo##XX##",
"##XX##oo#########  OOOO....OOOO  #########oo##XX##",
"##XX##oo#########  OOOO....OOOO  #########oo##XX##",
"##XX##oo###########  ........  ###########oo##XX##",
"##XX##oo###########  ........  ###########oo##XX##",
"##XX##oo#############        #############oo##XX##",
"##XX##oo#############        #############oo##XX##",
"##XX##oo##################################oo##XX##",
"##XX##########################################XX##",
"##XX##########################################XX##",
"##XX##@@##oooooooooooooooooooooooooooooo##@@##XX##",
"##XX##@@##oooooooooooooooooooooooooooooo##@@##XX##",
"##XX##########################################XX##",
"##XX##########################################XX##",
"XX@@XXXXXXXXXXXXXXXXXXXXXXXXXXXXXXXXXXXXXXXXXX@@XX",
"XX@@XXXXXXXXXXXXXXXXXXXXXXXXXXXXXXXXXXXXXXXXXX@@XX",
"##XX##########################################XX##",
"##XX##########################################XX##"
};
